first trial
nRows=4
nColumns=165

# SIMM Motion File Header:
name first trial
datacolumns 165
datarows 4
otherdata 1
range 2.25000000000000000000 2.29999999999999980000
endheader
time	pelvis_tx	pelvis_ty	pelvis_tz	pelvis_tilt	pelvis_list	pelvis_rotation	hip_flexion_r	hip_adduction_r	hip_rotation_r	knee_angle_r	ankle_angle_r	subtalar_angle_r	mtp_angle_r	hip_flexion_l	hip_adduction_l	hip_rotation_l	knee_angle_l	ankle_angle_l	subtalar_angle_l	mtp_angle_l	lumbar_extension	lumbar_bending	lumbar_rotation	R.ASIS_tx	R.ASIS_ty	R.ASIS_tz	L.ASIS_tx	L.ASIS_ty	L.ASIS_tz	V.Sacral_tx	V.Sacral_ty	V.Sacral_tz	R.Thigh.Upper_tx	R.Thigh.Upper_ty	R.Thigh.Upper_tz	R.Thigh.Front_tx	R.Thigh.Front_ty	R.Thigh.Front_tz	R.Thigh.Rear_tx	R.Thigh.Rear_ty	R.Thigh.Rear_tz	L.Thigh.Upper_tx	L.Thigh.Upper_ty	L.Thigh.Upper_tz	L.Thigh.Front_tx	L.Thigh.Front_ty	L.Thigh.Front_tz	L.Thigh.Rear_tx	L.Thigh.Rear_ty	L.Thigh.Rear_tz	R.Shank.Upper_tx	R.Shank.Upper_ty	R.Shank.Upper_tz	R.Shank.Front_tx	R.Shank.Front_ty	R.Shank.Front_tz	R.Shank.Rear_tx	R.Shank.Rear_ty	R.Shank.Rear_tz	L.Shank.Upper_tx	L.Shank.Upper_ty	L.Shank.Upper_tz	L.Shank.Front_tx	L.Shank.Front_ty	L.Shank.Front_tz	L.Shank.Rear_tx	L.Shank.Rear_ty	L.Shank.Rear_tz	R.Heel_tx	R.Heel_ty	R.Heel_tz	R.Midfoot.Sup_tx	R.Midfoot.Sup_ty	R.Midfoot.Sup_tz	R.Midfoot.Lat_tx	R.Midfoot.Lat_ty	R.Midfoot.Lat_tz	R.Toe.Tip_tx	R.Toe.Tip_ty	R.Toe.Tip_tz	L.Heel_tx	L.Heel_ty	L.Heel_tz	L.Midfoot.Sup_tx	L.Midfoot.Sup_ty	L.Midfoot.Sup_tz	L.Midfoot.Lat_tx	L.Midfoot.Lat_ty	L.Midfoot.Lat_tz	L.Toe.Tip_tx	L.Toe.Tip_ty	L.Toe.Tip_tz	Sternum_tx	Sternum_ty	Sternum_tz	R.Acromium_tx	R.Acromium_ty	R.Acromium_tz	L.Acromium_tx	L.Acromium_ty	L.Acromium_tz	R.Bicep_tx	R.Bicep_ty	R.Bicep_tz	L.Bicep_tx	L.Bicep_ty	L.Bicep_tz	R.Elbow_tx	R.Elbow_ty	R.Elbow_tz	L.Elbow_tx	L.Elbow_ty	L.Elbow_tz	R.Wrist.Med_tx	R.Wrist.Med_ty	R.Wrist.Med_tz	R.Wrist.Lat_tx	R.Wrist.Lat_ty	R.Wrist.Lat_tz	L.Wrist.Med_tx	L.Wrist.Med_ty	L.Wrist.Med_tz	L.Wrist.Lat_tx	L.Wrist.Lat_ty	L.Wrist.Lat_tz	R.Toe.Lat_tx	R.Toe.Lat_ty	R.Toe.Lat_tz	R.Toe.Med_tx	R.Toe.Med_ty	R.Toe.Med_tz	L.Toe.Lat_tx	L.Toe.Lat_ty	L.Toe.Lat_tz	L.Toe.Med_tx	L.Toe.Med_ty	L.Toe.Med_tz	R.Temple_tx	R.Temple_ty	R.Temple_tz	L.Temple_tx	L.Temple_ty	L.Temple_tz	Top.Head_tx	Top.Head_ty	Top.Head_tz	ground_force_vx	ground_force_vy	ground_force_vz	ground_force_px	ground_force_py	ground_force_pz	ground_force_vx	ground_force_vy	ground_force_vz	ground_force_px	ground_force_py	ground_force_pz	ground_torque_x	ground_torque_y	ground_torque_z	ground_torque_x	ground_torque_y	ground_torque_z
      2.25000000000000000000	      0.59281902575128775000	      1.04263566297218960000	      0.04797764037969948200	      5.89567908625562880000	     -1.51315989589784560000	     -0.74943201974517659000	     -5.30428956125814730000	      4.07175785470396350000	     -0.00094809738169582259	    -10.19041027246954200000	      8.32393178118307380000	     -0.00007742982114881501	     -0.00000028277764748795	     20.78335964424739800000	     -4.43136083338471830000	     -3.66271964532407820000	    -52.91642051360275900000	      1.43951073051092090000	     -0.00020585505790280751	      0.00000004141774624613	    -14.65605934489719600000	      1.94499660590200670000	      0.97465786085603057000	      0.61180193999999999000	      1.07947620000000000000	      0.17845892000000002000	      0.61533734000000007000	      1.07300098000000000000	     -0.08188822999999999200	      0.41466779000000004000	      1.07326367000000000000	      0.05191214000000000200	      0.57405919999999999000	      0.75502679000000006000	      0.21507314000000000000	      0.63273572000000000000	      0.69433197000000002000	      0.12076545000000001000	      0.56187365999999994000	      0.63159113000000000000	      0.20133493000000002000	      0.66050438999999994000	      0.78125378000000001000	     -0.14869798000000001000	      0.76207232999999996000	      0.77974127000000004000	     -0.09276600999999999600	      0.70577440999999996000	      0.68034649999999997000	     -0.14193011000000003000	      0.48792806999999999000	      0.45976178000000001000	      0.18351846000000002000	      0.56020685000000003000	      0.41859784000000005000	      0.12918129000000000000	      0.49189562999999997000	      0.37250191999999999000	      0.18660310000000002000	      0.69864013999999997000	      0.49222281000000001000	     -0.13948447000000000000	      0.72768774000000003000	      0.42521259000000000000	     -0.09224032999999999500	      0.66507744999999996000	      0.46154941000000005000	     -0.14710645000000000000	      0.38420050000000000000	      0.07159726999999999100	      0.09250598999999999600	      0.52774481000000006000	      0.07841982000000000100	      0.06126684000000000300	      0.51826874000000001000	      0.06318567999999999400	      0.16801548999999999000	      0.67111450000000006000	      0.04811858999999999600	      0.10493743999999999000	      0.47716323999999999000	      0.18296863999999999000	     -0.04471299000000000100	      0.63223693999999997000	      0.11758363000000001000	     -0.03218106999999999900	      0.60917334000000012000	      0.11806179000000000000	     -0.12714815000000002000	      0.72319542999999997000	      0.05302049000000000300	     -0.06773427999999999400	      0.63925549000000004000	      1.39260388000000000000	      0.03915079999999999900	      0.54433007999999994000	      1.47447009000000010000	      0.25445099999999998000	      0.55543926999999993000	      1.50349463000000010000	     -0.16512233000000001000	      0.57834753000000005000	      1.27156151999999990000	      0.29772464000000004000	      0.55234698000000004000	      1.26641370000000020000	     -0.20534062000000000000	      0.55181994999999995000	      1.16373340000000010000	      0.32845901000000000000	      0.49080743000000004000	      1.17719555999999990000	     -0.24220164000000000000	      0.74583862000000001000	      0.97867932000000002000	      0.29641010000000001000	      0.71401300000000001000	      0.95186035000000002000	      0.34687261999999996000	      0.59433862000000004000	      0.94576978000000000000	     -0.20927626000000002000	      0.54632647999999995000	      0.93718127000000007000	     -0.26703917999999999000	      0.60653557999999996000	      0.03787560000000000200	      0.18336447000000000000	      0.61458989999999991000	      0.04656708999999999800	      0.07376517000000000500	      0.65422614000000001000	      0.06949044999999999500	     -0.13938370000000000000	      0.68046087999999993000	      0.07066775999999999600	     -0.03944520000000000000	      0.68198438000000006000	      1.63997070000000010000	      0.12927031999999999000	      0.68940656000000000000	      1.64788391000000000000	     -0.00973776999999999980	      0.62916925000000001000	      1.80884473000000010000	      0.06939425000000000500	    -20.68175910000000100000	    588.41475054000000000000	    -33.09299154000000000000	      0.57382710000000003000	     -0.00749999999999999970	      0.12930391999999999000	      0.00000000000000000000	      0.00000000000000000000	      0.00000000000000000000	      0.54052772999999998000	     -0.00749999999999999970	     -0.04999920000000000100	      0.00000000000000000000	      2.74963895000000000000	      0.00000000000000000000	      0.00000000000000000000	      0.00000000000000000000	      0.00000000000000000000
      2.26699999999999990000	      0.59108816783428053000	      1.04167309466446350000	      0.04878458935450399200	      5.99066776356310450000	     -1.71313440732226050000	     -1.00996660016745390000	     -6.93963191527122270000	      4.29165773044025300000	      0.41214169289807878000	     -9.33665718741023910000	      8.88155397817201830000	     -0.00007871813814754936	     -0.00000147029687927606	     20.99989106269593700000	     -4.85225635193542540000	     -4.47831361519574590000	    -47.49137494991651200000	      1.21492469521353490000	     -0.00031319036014968658	     -0.00000012197542199018	    -14.87538252093319200000	      1.95754904345264260000	      1.32154103664789810000	      0.60897040000000002000	      1.07824756000000010000	      0.17896291000000000000	      0.61392846999999995000	      1.07240247000000010000	     -0.08148996000000000000	      0.41271512000000005000	      1.07289722000000000000	      0.05188394999999999800	      0.56423773000000010000	      0.75313207999999998000	      0.21506666999999999000	      0.62409833000000003000	      0.69236260999999999000	      0.12016074000000000000	      0.55212512000000002000	      0.63122852000000007000	      0.20122426999999998000	      0.66067766999999999000	      0.78128326000000003000	     -0.14749790999999998000	      0.76149054000000005000	      0.78081444999999994000	     -0.09091636999999999600	      0.70594904000000003000	      0.68053527999999996000	     -0.14037601000000002000	      0.47296857000000003000	      0.45956536999999997000	      0.18303617999999999000	      0.54512799000000001000	      0.41778915000000000000	      0.12921146000000000000	      0.47667596000000001000	      0.37242624000000002000	      0.18665109000000002000	      0.70710766999999997000	      0.48994949000000004000	     -0.13770274000000002000	      0.74233807000000007000	      0.42499640000000000000	     -0.09122074000000000800	      0.67550261999999994000	      0.45551920000000001000	     -0.14494040000000002000	      0.36513367000000002000	      0.07193779999999999600	      0.09210641000000000000	      0.50831943000000002000	      0.07802366000000000900	      0.06124633999999999600	      0.49928665000000000000	      0.06310627000000000600	      0.16783954000000001000	      0.65193877999999994000	      0.04795463000000000500	      0.10485195000000000000	      0.51566058000000004000	      0.15881934000000000000	     -0.04379874000000000300	      0.67693353000000001000	      0.10889902000000000000	     -0.03386155000000000400	      0.65191045999999997000	      0.10793674000000000000	     -0.12859398999999999000	      0.77297870000000002000	      0.05365125999999999900	     -0.07133848999999999100	      0.63785486000000002000	      1.39077637000000000000	      0.03832900000000000200	      0.54359497000000001000	      1.47391174000000010000	      0.25392381000000003000	      0.55457532000000009000	      1.50180933000000020000	     -0.16553134000000000000	      0.57834479000000005000	      1.27131921000000010000	      0.29826611000000003000	      0.54852166999999996000	      1.26530432000000000000	     -0.20549467000000002000	      0.55320996000000000000	      1.16347961000000020000	      0.32930856000000003000	      0.48588808999999999000	      1.17636841000000000000	     -0.24246968000000002000	      0.75199041999999994000	      0.98520636000000006000	      0.29542328000000001000	      0.72271984999999994000	      0.95601397999999993000	      0.34548358000000001000	      0.59091656000000004000	      0.94553595000000001000	     -0.20891780000000001000	      0.54251941000000004000	      0.93652575999999998000	     -0.26500731999999999000	      0.58739874000000003000	      0.03781000999999999800	      0.18304843000000001000	      0.59609369000000001000	      0.04645036999999999800	      0.07390607000000000400	      0.70171558000000001000	      0.06450496000000000000	     -0.14193100000000000000	      0.72865985000000000000	      0.06640482000000000300	     -0.04237014000000000100	      0.68140984999999998000	      1.64001183999999990000	      0.12860331999999999000	      0.68850250000000002000	      1.64736963000000000000	     -0.01144483000000000000	      0.62672876000000000000	      1.80804101999999990000	      0.06805213999999999700	    -16.69687250000000100000	    602.80271683000001000000	    -34.07626020000000000000	      0.55940889999999999000	     -0.00749999999999999970	      0.12853437000000001000	      0.00000000000000000000	      0.00000000000000000000	      0.00000000000000000000	      0.56585985000000005000	     -0.00749999999999999970	     -0.04928553000000000100	      0.00000000000000000000	      3.03613468999999990000	      0.00000000000000000000	      0.00000000000000000000	      0.00000000000000000000	      0.00000000000000000000
      2.28299999999999990000	      0.58917271890454948000	      1.03958866371233220000	      0.04969653490352379800	      5.80302048816403190000	     -2.10920726462354800000	     -1.28177966696023390000	     -8.11385945949577980000	      4.71721445467791600000	      0.84445242453245795000	     -8.81780844318532250000	      9.57414501066697630000	     -0.00008103042780497188	     -0.00000003701457831060	     21.28238591518951100000	     -5.49102994007881850000	     -5.49095334986490520000	    -41.62478066996788300000	      0.80263138755938557000	     -0.00040987101415447714	      0.00000075053005777278	    -14.76864782103790900000	      2.18045296855210720000	      1.39638576545548300000	      0.60603601000000007000	      1.07608765000000010000	      0.17928732000000000000	      0.61233104999999999000	      1.07015601000000000000	     -0.08082956000000000900	      0.41088736000000003000	      1.07212085000000010000	      0.05164067000000000000	      0.55559985000000001000	      0.75197069999999999000	      0.21525218000000002000	      0.61542719000000001000	      0.69004175000000001000	      0.12036703000000000000	      0.54156389999999999000	      0.63049890000000008000	      0.20100772000000000000	      0.65900127999999991000	      0.77991418000000001000	     -0.14605448999999998000	      0.75910504000000001000	      0.78001085999999997000	     -0.08816293000000000000	      0.70404028000000007000	      0.67959973000000007000	     -0.13864232999999998000	      0.45936864999999999000	      0.45954784999999998000	      0.18349388000000000000	      0.53055872000000004000	      0.41675253000000001000	      0.12924685999999999000	      0.46211258000000000000	      0.37294342000000003000	      0.18626808000000000000	      0.71168591000000003000	      0.48602756000000003000	     -0.13508934000000000000	      0.75503961000000008000	      0.42441192999999999000	     -0.09048335000000000400	      0.68423546999999996000	      0.44842291000000001000	     -0.14247594000000002000	      0.34598962000000000000	      0.07230709000000000400	      0.09166430999999999900	      0.48887509000000001000	      0.07759753000000001200	      0.06125126000000000200	      0.48038220000000004000	      0.06309731999999999800	      0.16768888999999998000	      0.63276904000000000000	      0.04767239000000000200	      0.10483078999999999000	      0.55595734000000008000	      0.13612547000000000000	     -0.04270674000000000700	      0.72204607999999992000	      0.10242985000000000000	     -0.03579554000000000100	      0.69484473000000002000	      0.09978275999999999800	     -0.13017935000000000000	      0.82220715000000000000	      0.05698893000000000700	     -0.07549876000000001200	      0.63791503999999999000	      1.38944556000000000000	      0.03785111000000000000	      0.54042487000000006000	      1.47267676000000010000	      0.25381245000000002000	      0.55408263999999996000	      1.49913538000000000000	     -0.16586241000000002000	      0.57825134000000000000	      1.27081580000000010000	      0.29832947000000004000	      0.54534174000000002000	      1.26267676000000020000	     -0.20605476000000000000	      0.55423920000000004000	      1.16273450000000000000	      0.32987473000000000000	      0.48220380000000002000	      1.17458850000000000000	     -0.24189680000000002000	      0.75735706000000003000	      0.98971741000000002000	      0.29289508000000003000	      0.72899091000000005000	      0.95989160000000007000	      0.34379257000000002000	      0.58894921999999994000	      0.94517328000000000000	     -0.20897005999999999000	      0.53999158000000003000	      0.93503698999999996000	     -0.26487030000000000000	      0.56764367999999998000	      0.03863443000000000400	      0.18302437000000002000	      0.57731164999999995000	      0.04614083000000000100	      0.07382317999999998800	      0.74888836999999997000	      0.06191560000000000100	     -0.14486654999999998000	      0.77682428000000003000	      0.06468626999999999000	     -0.04573317000000000400	      0.68023730000000004000	      1.63885535000000000000	      0.12691311000000000000	      0.68744556000000001000	      1.64659167000000010000	     -0.01220866000000000000	      0.62536963000000001000	      1.80707336000000020000	      0.06596483999999999700	    -11.70364657999999900000	    618.34887034999997000000	    -35.59213870000000000000	      0.54545268999999996000	     -0.00749999999999999970	      0.12827665999999999000	      0.00000000000000000000	      0.00000000000000000000	      0.00000000000000000000	      0.58949545000000003000	     -0.00749999999999999970	     -0.04859771000000000200	      0.00000000000000000000	      3.64862623000000010000	      0.00000000000000000000	      0.00000000000000000000	      0.00000000000000000000	      0.00000000000000000000
      2.29999999999999980000	      0.58796336752460709000	      1.03745334398596500000	      0.05022496926369172200	      5.84946823471548250000	     -2.56357008692747050000	     -1.35211907142724950000	     -9.66892862480164440000	      5.19991577916206000000	      1.10059982991371210000	     -8.13041228686691040000	     10.17565119775184200000	     -0.00008491519048427685	      0.00000086223139820890	     21.06136298891999600000	     -6.02257308096998130000	     -6.45257136347001570000	    -35.38771613181771200000	      0.21548794466593330000	     -0.00047530781287523187	      0.00000040142447503443	    -14.96563278350696200000	      2.48740244388133070000	      1.55020592253919980000	      0.60463660000000008000	      1.07447155999999990000	      0.17946716000000001000	      0.61066632000000010000	      1.06793665000000000000	     -0.08037424000000000000	      0.40927337999999996000	      1.07096069000000020000	      0.05117188999999999800	      0.54789801000000005000	      0.75094341999999992000	      0.21526643000000001000	      0.60798260000000004000	      0.68781530999999996000	      0.12077934000000001000	      0.53144420999999997000	      0.62933086999999999000	      0.20061140000000000000	      0.65566602000000007000	      0.77714075000000005000	     -0.14439644000000001000	      0.75521497000000004000	      0.77762183000000007000	     -0.08527607999999999000	      0.70180803999999997000	      0.67736981000000007000	     -0.13690011999999999000	      0.44522464000000000000	      0.45994360000000001000	      0.18323871000000000000	      0.51734912000000000000	      0.41634711000000002000	      0.12791916000000000000	      0.44694702000000003000	      0.37267453000000000000	      0.18578354999999999000	      0.71735839999999995000	      0.48139864999999998000	     -0.13340724000000001000	      0.76520885999999999000	      0.42342331000000000000	     -0.08913898000000000700	      0.69167950000000000000	      0.44061950999999999000	     -0.14007230000000001000	      0.32687451000000001000	      0.07273512000000000000	      0.09125423000000000600	      0.46958401000000000000	      0.07722130000000000700	      0.06120311000000000500	      0.46150448999999999000	      0.06318208000000000200	      0.16752832000000001000	      0.61363440000000002000	      0.04733499000000000000	      0.10486761000000000000	      0.59750043000000008000	      0.11596716000000001000	     -0.04163855000000000300	      0.76656946000000004000	      0.09884413999999999700	     -0.03768872000000000200	      0.73763933999999998000	      0.09446259000000001300	     -0.13161550999999999000	      0.86990984999999998000	      0.06358642999999999900	     -0.07949868999999999700	      0.63776697000000004000	      1.38756250000000000000	      0.03766171000000000100	      0.54089844000000009000	      1.47152637000000010000	      0.25262575000000004000	      0.55381360000000002000	      1.49621337999999990000	     -0.16688460000000002000	      0.57804253999999999000	      1.26946973000000000000	      0.29756631000000000000	      0.54309112999999998000	      1.26077405000000000000	     -0.20677545000000000000	      0.55491674999999996000	      1.16159937000000000000	      0.33014691000000002000	      0.47940289000000003000	      1.17270447000000000000	     -0.24215622000000001000	      0.76087390000000010000	      0.99385706000000007000	      0.29059573000000000000	      0.73489441000000000000	      0.96399279999999998000	      0.34187085000000000000	      0.58589354999999999000	      0.94323712000000004000	     -0.20824480000000001000	      0.53612848000000002000	      0.93321973000000003000	     -0.26413369999999997000	      0.54892169000000002000	      0.03812010000000000400	      0.18442957000000001000	      0.55806763000000004000	      0.04563967000000000000	      0.07350704000000001000	      0.79517969000000011000	      0.06235759000000000400	     -0.14763487000000000000	      0.82412456999999995000	      0.06638238999999999900	     -0.04890673000000000200	      0.67959020999999997000	      1.63811731000000020000	      0.12542840000000000000	      0.68659241000000004000	      1.64509497000000020000	     -0.01431841000000000000	      0.62349683000000011000	      1.80517798000000010000	      0.06402469000000000900	     -6.51607610000000030000	    637.07253853999998000000	    -36.20631420000000100000	      0.53081811999999995000	     -0.00749999999999999970	      0.12820171999999999000	      0.00000000000000000000	      0.00000000000000000000	      0.00000000000000000000	      0.61400644000000004000	     -0.00749999999999999970	     -0.04785819000000000200	      0.00000000000000000000	      3.52433533000000000000	      0.00000000000000000000	      0.00000000000000000000	      0.00000000000000000000	      0.00000000000000000000
